<svg width="103" height="31" viewBox="0 0 103 31" xmlns="http://www.w3.org/2000/svg">
    <g fill="#FFF" fill-rule="evenodd">
        <path d="M10.078 12.824a2.96 2.96 0 1 1-5.92 0 2.96 2.96 0 0 1 5.92 0M12.34 18.214a1.53 1.53 0 1 1-3.06 0 1.53 1.53 0 0 1 3.06 0M13.191 5.218a3.112 3.112 0 1 1-6.225.001 3.112 3.112 0 0 1 6.225 0M20.136 12.456a4.126 4.126 0 1 1-8.252.001 4.126 4.126 0 0 1 8.252 0M16.692 18.888c.84 0 1.56.305 2.161.913a3.03 3.03 0 0 1 .902 2.211c0 .855-.298 1.583-.893 2.186s-1.307.904-2.135.904a2.936 2.936 0 0 1-2.178-.922c-.602-.614-.902-1.36-.902-2.238 0-.842.297-1.562.892-2.158a2.933 2.933 0 0 1 2.153-.896"/>
        <g>
            <path d="M27 10h2.887v5.754c0 1.076.073 1.824.22 2.241.147.42.383.745.708.977.325.232.725.348 1.2.348.476 0 .88-.114 1.212-.343.332-.229.578-.564.74-1.007.118-.331.177-1.038.177-2.121V10H37v5.089c0 2.005-.157 3.377-.47 4.115-.384.9-.95 1.591-1.695 2.073-.747.482-1.695.723-2.845.723-1.249 0-2.258-.281-3.029-.844-.77-.563-1.313-1.347-1.626-2.353-.224-.696-.335-1.962-.335-3.798V10M45.793 11.888l-1.751 1.773c-.712-.714-1.358-1.07-1.938-1.07-.318 0-.566.068-.747.204a.618.618 0 0 0-.269.51.63.63 0 0 0 .171.424c.114.13.396.306.845.53l1.036.524c1.091.545 1.841 1.101 2.249 1.668.407.566.611 1.23.611 1.993 0 1.014-.368 1.86-1.103 2.538-.736.678-1.723 1.018-2.96 1.018-1.643 0-2.956-.65-3.937-1.952l1.741-1.919c.331.392.72.708 1.166.95.445.241.84.361 1.186.361.373 0 .674-.09.902-.272.228-.182.342-.392.342-.63 0-.44-.411-.87-1.233-1.29l-.954-.483c-1.823-.93-2.736-2.094-2.736-3.492 0-.902.344-1.674 1.032-2.313.687-.64 1.566-.96 2.637-.96.732 0 1.421.162 2.068.487a4.594 4.594 0 0 1 1.642 1.401M56.09 10.966H59v10.74h-2.91V20.5c-.568.531-1.137.914-1.708 1.149a4.855 4.855 0 0 1-1.858.351c-1.497 0-2.792-.572-3.885-1.715C47.546 19.14 47 17.72 47 16.02c0-1.762.528-3.206 1.586-4.333C49.643 10.563 50.928 10 52.439 10c.696 0 1.349.13 1.959.388.61.259 1.174.647 1.693 1.165v-.587zm-3.058 1.677c-.9 0-1.647.313-2.241.94-.595.625-.892 1.427-.892 2.406 0 .986.302 1.798.907 2.434.606.636 1.352.955 2.236.955.914 0 1.672-.314 2.273-.939.602-.626.903-1.446.903-2.46 0-.993-.3-1.797-.903-2.413-.601-.615-1.362-.923-2.283-.923zM62.888 6v5.328a5.468 5.468 0 0 1 1.705-1.19 4.884 4.884 0 0 1 1.962-.396c1.513 0 2.799.575 3.857 1.725 1.06 1.15 1.588 2.626 1.588 4.425 0 1.736-.547 3.188-1.64 4.356C69.264 21.416 67.967 22 66.468 22c-.668 0-1.29-.12-1.865-.359-.575-.24-1.148-.63-1.716-1.174V21.7H60V6h2.888zm3.059 6.442c-.917 0-1.677.315-2.28.943-.605.629-.907 1.45-.907 2.465 0 1.036.302 1.873.906 2.513.604.638 1.364.958 2.28.958a2.95 2.95 0 0 0 2.244-.975c.608-.65.911-1.479.911-2.486 0-1-.298-1.82-.895-2.458-.597-.64-1.35-.96-2.26-.96zM78 6h3v16h-3V6zM83 6h3v16h-3V6zM96.09 10.966H99v10.74h-2.91V20.5c-.568.531-1.137.914-1.708 1.149a4.854 4.854 0 0 1-1.857.351c-1.498 0-2.793-.572-3.886-1.715C87.546 19.14 87 17.72 87 16.02c0-1.762.528-3.206 1.586-4.333C89.643 10.563 90.928 10 92.439 10c.695 0 1.348.13 1.959.388.61.259 1.174.647 1.692 1.165v-.587zm-3.058 1.677c-.9 0-1.646.313-2.241.94-.595.625-.892 1.427-.892 2.406 0 .986.302 1.798.908 2.434.606.636 1.35.955 2.235.955.914 0 1.672-.314 2.273-.939.602-.626.903-1.446.903-2.46 0-.993-.301-1.797-.903-2.413-.601-.615-1.363-.923-2.283-.923zM74.5 12c-.828 0-1.5.667-1.5 1.49V22h3v-8.51c0-.823-.672-1.49-1.5-1.49M74.493 6c.688 0 1.277.245 1.769.735S77 7.817 77 8.514c0 .688-.244 1.274-.731 1.759A2.39 2.39 0 0 1 74.52 11a2.423 2.423 0 0 1-1.783-.742 2.456 2.456 0 0 1-.738-1.8c0-.679.243-1.258.73-1.738A2.421 2.421 0 0 1 74.493 6"/>
        </g>
    </g>
</svg>
