<svg fill="#fff" width="84px" height="24px" viewBox="0 0 84 24" version="1.1" xmlns="http://www.w3.org/2000/svg" xmlns:xlink="http://www.w3.org/1999/xlink">
                <g id="logo">
                    <path d="M6.078,10.824 C6.078,12.4587629 4.75276286,13.784 3.118,13.784 C1.48323714,13.784 0.158,12.4587629 0.158,10.824 C0.158,9.18923714 1.48323714,7.864 3.118,7.864 C4.75276286,7.864 6.078,9.18923714 6.078,10.824 M8.34,16.214 C8.34,17.0589957 7.65499567,17.744 6.81,17.744 C5.96500433,17.744 5.28,17.0589957 5.28,16.214 C5.28,15.3690043 5.96500433,14.684 6.81,14.684 C7.65499567,14.684 8.34,15.3690043 8.34,16.214 M9.191,3.218 C9.19127614,4.93698628 7.79798628,6.33072386 6.079,6.331 C4.36001372,6.33127614 2.96627614,4.93798628 2.966,3.219 C2.966,1.50001372 4.35951372,0.1065 6.0785,0.1065 C7.79748628,0.1065 9.191,1.50001372 9.191,3.219 M16.136,10.456 C16.1362761,12.7347269 14.2892269,14.5822239 12.0105,14.5825 C9.73177312,14.5827761 7.88427614,12.7357269 7.884,10.457 C7.884,8.17827312 9.73127312,6.331 12.01,6.331 C14.2887269,6.331 16.136,8.17827312 16.136,10.457 M12.692,16.888 C13.532,16.888 14.252,17.193 14.853,17.801 C15.4436454,18.383457 15.7696643,19.1826008 15.755,20.012 C15.755,20.867 15.457,21.595 14.862,22.198 C14.267,22.801 13.555,23.102 12.727,23.102 C11.9038451,23.1136073 11.1136316,22.7790908 10.549,22.18 C9.947,21.566 9.647,20.82 9.647,19.942 C9.647,19.1 9.944,18.38 10.539,17.784 C11.1019848,17.2006027 11.8813419,16.8762627 12.692,16.888" id="Shape"></path>
                </g>
                <g id="Stylabilla" transform="translate(20.000000, 5.000000)" fill-rule="nonzero">
                    <g id="Group-2" transform="translate(14.542587, 3.029706)">
                        <path d="M0,0 L2.07720668,0 L2.07720668,4.14022082 C2.07720668,4.91485729 2.13020801,5.45243152 2.23571535,5.75319331 C2.34122269,6.0547045 2.51112418,6.2887691 2.74517215,6.45563693 C2.97897245,6.62275458 3.26676476,6.7061885 3.60904444,6.7061885 C3.95107644,6.7061885 4.24134545,6.62425338 4.48059449,6.45938401 C4.71934818,6.29501418 4.89692743,6.05345549 5.01258923,5.73470795 C5.09803532,5.4966465 5.14063452,4.98779952 5.14063452,4.20841681 L5.14063452,0 L7.19555092,0 L7.19555092,3.66184971 C7.19555092,5.10420732 7.08286114,6.09142541 6.85673863,6.62275458 C6.58108213,7.27074136 6.17440832,7.76784765 5.63770783,8.11457304 C5.10051202,8.4610486 4.41818169,8.6346611 3.59022153,8.6346611 C2.69217081,8.6346611 1.96550759,8.43232136 1.41122256,8.02714228 C0.856689864,7.6224628 0.466362248,7.05840953 0.240735053,6.33423311 C0.0799973478,5.83312999 0,4.92235136 0,3.60139759 L0,0" id="Fill-5"></path>
                        <path d="M2.09553187,9.69505808 C2.11926973,10.1002545 2.1660451,10.4021187 2.23571535,10.6007224 C2.34122269,10.9022336 2.51112418,11.1362981 2.74517215,11.303166 C2.97897245,11.4702836 3.26676476,11.5537175 3.60904444,11.5537175 C3.95107644,11.5537175 4.24134545,11.4717824 4.48059449,11.306913 C4.71934818,11.1425432 4.89692743,10.9009845 5.01258923,10.582237 C5.09803532,10.3441755 5.14063452,9.83532854 5.14063452,9.05594585 L5.14063452,4.84752904 L7.19555092,4.24158791 L7.19555092,8.50937877 C7.19555092,9.95173638 7.08286114,10.9389544 6.85673863,11.4702836 C6.58108213,12.1182704 6.17440832,12.6153767 5.63770783,12.9621021 C5.10051202,13.3085776 4.41818169,13.4821901 3.59022153,13.4821901 C2.69217081,13.4821901 1.96550759,13.2798504 1.41122256,12.8746713 C0.856689864,12.4699918 0.466362248,11.9059386 0.240735053,11.1817621 C0.136766537,10.8576382 0.0665779574,10.3621152 0.0299682447,9.69505808 L2.09553187,9.69505808 Z" id="Combined-Shape"></path>
                    </g>
                    <path d="M7.88118045,7.19005503 C7.89456485,8.09224581 7.94201543,8.76251025 8.02376973,9.20106081 C8.03465698,9.25946257 8.04615253,9.31375502 8.05825705,9.36393876 C8.22791893,10.0881152 8.52142846,10.6521684 8.93841303,11.0568479 C9.35521145,11.462027 9.90163074,11.6643667 10.5769261,11.6643667 C10.7076657,11.6643667 11.3535532,11.6796714 11.5128815,11.6643667 C12.1122838,11.6067896 12.3463101,11.4179967 12.6654318,11.1442787 C13.0690073,10.7975533 13.3748085,10.300447 13.5820902,9.65246023 C13.6304056,9.50148267 13.671834,9.31369582 13.7063883,9.08911695 L12.07853,9.08911695 C12.0022888,9.25275638 11.9078438,9.38608064 11.7953326,9.48908966 C11.6154276,9.65395903 11.3971579,9.73589415 11.1399646,9.73589415 C10.8825851,9.73589415 10.6661777,9.65246023 10.49037,9.48534258 C10.314376,9.31847475 10.1866175,9.08441018 10.1072805,8.78289896 C10.0279435,8.48213717 9.98808884,7.94456293 9.98808884,7.16992645 L9.98808884,5.01794998 L11.6833024,5.01794998 L11.6833024,2.85928471 L9.93088891,2.85928471 L9.7920109,0 L7.87723469,0 L7.87723469,2.85928471 L6.83577337,2.85928471 L6.83577337,5.01794998 L7.87723469,5.01794998 L7.87723469,6.63110324 L7.87723469,7.19555092 L7.88118045,7.19005503 Z" id="Combined-Shape"></path>
                    <path d="M6.08089106,4.38822367 L4.82065751,5.66379014 C4.30856494,5.15043425 3.84382927,4.89412883 3.42620514,4.89412883 C3.19751789,4.89412883 3.01888665,4.94305535 2.88908456,5.04090839 C2.76001858,5.13925813 2.6954856,5.2612019 2.6954856,5.40723638 C2.6954856,5.51775566 2.73646281,5.61983078 2.81866263,5.71296502 C2.9003717,5.80609925 3.10304945,5.93301017 3.42620514,6.0941945 L4.17189241,6.47120186 C4.95708467,6.86335908 5.49690434,7.26371208 5.79012458,7.67126754 C6.08334482,8.07907125 6.22983224,8.55716032 6.22983224,9.10553474 C6.22983224,9.83496201 5.9653206,10.4439357 5.43580657,10.9322075 C4.90653791,11.4199825 4.19667504,11.6643667 3.30695407,11.6643667 C2.12376748,11.6643667 1.17908305,11.1964603 0.473391508,10.2601508 L1.7262639,8.87903225 C1.96452068,9.16091855 2.24424542,9.38841442 2.56494738,9.56226499 C2.88540397,9.73611556 3.17003617,9.82254415 3.41884396,9.82254415 C3.68703619,9.82254415 3.90345481,9.75747438 4.06736369,9.62634132 C4.23176332,9.49570508 4.31371776,9.34445509 4.31371776,9.17333646 C4.31371776,8.85668005 4.01779843,8.54722604 3.42620514,8.24522274 L2.7401434,7.89776997 C1.42789084,7.22844528 0.771519191,6.39098222 0.771519191,5.3846358 C0.771519191,4.7354281 1.01860938,4.18059643 1.51352587,3.72014077 C2.008197,3.25993348 2.64076751,3.02970565 3.41123741,3.02970565 C3.93829772,3.02970565 4.43395032,3.14643389 4.89917674,3.38038709 C5.3639124,3.61458864 5.7577354,3.95061695 6.08089106,4.38822367" id="Fill-6-Copy"></path>
                    <path d="M32.5966262,3.72510793 L34.6901297,3.72510793 L34.6901297,11.4530141 L32.5966262,11.4530141 L32.5966262,10.5847547 C32.1878669,10.9674743 31.7783507,11.2429033 31.3673206,11.4115384 C30.9560381,11.579925 30.5106923,11.6643667 30.0305263,11.6643667 C28.95337,11.6643667 28.0212979,11.2528376 27.2348148,10.4300277 C26.448584,9.60721776 26.0554686,8.5847281 26.0554686,7.36181353 C26.0554686,6.0941945 26.4357156,5.05506479 27.1967143,4.24467277 C27.9574608,3.43477748 28.8817109,3.02970565 29.9694648,3.02970565 C30.4698164,3.02970565 30.9396372,3.12283989 31.378675,3.30910835 C31.8177127,3.49512846 32.2236964,3.77453116 32.5966262,4.14681974 L32.5966262,3.72510793 L32.5966262,3.72510793 Z M30.3958865,4.93163089 C29.7486843,4.93163089 29.2109892,5.15689155 28.7833059,5.60741289 C28.3553702,6.05743751 28.1411501,6.63486977 28.1411501,7.33896458 C28.1411501,8.04877159 28.3589028,8.63266119 28.794408,9.09063325 C29.2301656,9.54835694 29.766599,9.777343 30.4032037,9.777343 C31.0607511,9.777343 31.6057634,9.55208233 32.0387455,9.10205773 C32.4719798,8.65178475 32.6884708,8.0616862 32.6884708,7.33201056 C32.6884708,6.61723634 32.4719798,6.0385623 32.0387455,5.59598842 C31.6057634,5.15316618 31.0582279,4.93163089 30.3958865,4.93163089 L30.3958865,4.93163089 Z" id="Fill-7"></path>
                    <path d="M37.942374,0 L37.942374,3.83382175 C38.3206246,3.45353464 38.7296601,3.16812903 39.1692282,2.97811232 C39.6087963,2.78784193 40.0791492,2.69270673 40.5805394,2.69270673 C41.6693662,2.69270673 42.5946796,3.10648143 43.3562276,3.93377713 C44.1182801,4.76158023 44.4988017,5.82303537 44.4988017,7.1178889 C44.4988017,8.3670775 44.105411,9.41153513 43.3181249,10.2520229 C42.5305865,11.0925107 41.597703,11.5128815 40.5189696,11.5128815 C40.0385232,11.5128815 39.5911328,11.4266256 39.1767982,11.2546211 C38.7629684,11.082363 38.3511572,10.8010165 37.942374,10.4100742 L37.942374,11.296988 L35.8641406,11.296988 L35.8641406,0 L37.942374,0 L37.942374,0 Z M40.14299,4.63549437 C39.4836379,4.63549437 38.9365751,4.86178931 38.502306,5.31412547 C38.0675323,5.76620795 37.8502717,6.35731468 37.8502717,7.08744563 C37.8502717,7.83279818 38.0675323,8.43557484 38.502306,8.89552185 C38.9365751,9.35521508 39.4836379,9.58531547 40.14299,9.58531547 C40.7821553,9.58531547 41.3203865,9.35140971 41.7574312,8.8838519 C42.1947283,8.41604039 42.4129983,7.81960611 42.4129983,7.09454907 C42.4129983,6.37532695 42.1985133,5.78548868 41.7687863,5.32579539 C41.339564,4.86559471 40.7975478,4.63549437 40.14299,4.63549437 L40.14299,4.63549437 Z" id="Fill-8"></path>
                    <polygon id="Fill-9" points="49.0812315 0 51.2398968 0 51.2398968 11.5128815 49.0812315 11.5128815"></polygon>
                    <polygon id="Fill-9-Copy-2" points="23.0257629 0 25.1844282 0 25.1844282 11.5128815 23.0257629 11.5128815"></polygon>
                    <polygon id="Fill-10" points="52.4139077 0 54.572573 0 54.572573 11.5128815 52.4139077 11.5128815"></polygon>
                    <path d="M61.8332244,3.57362264 L63.9267892,3.57362264 L63.9267892,11.3015288 L61.8332244,11.3015288 L61.8332244,10.4332694 C61.4244535,10.8159891 61.0146725,11.091418 60.6038832,11.2600531 C60.1925885,11.4284398 59.7472297,11.5128815 59.2675543,11.5128815 C58.1896095,11.5128815 57.2577625,11.1013523 56.4712564,10.2785424 C55.685255,9.45573248 55.2921281,8.43324281 55.2921281,7.21032824 C55.2921281,5.9427092 55.6723863,4.90357951 56.4331549,4.09318749 C57.1941759,3.28329219 58.118453,2.87822037 59.2059863,2.87822037 C59.7061003,2.87822037 60.1759348,2.9713546 60.6152379,3.15762307 C61.0545404,3.34364318 61.460284,3.62304588 61.8332244,3.99533446 L61.8332244,3.57362264 L61.8332244,3.57362264 Z M59.6321682,4.7801456 C58.9851994,4.7801456 58.4477409,5.00540627 58.0197928,5.4559276 C57.5915923,5.90595222 57.3778706,6.48338449 57.3778706,7.1874793 C57.3778706,7.89728631 57.5956296,8.48117591 58.0311475,8.93914797 C58.4671702,9.39687166 59.0028624,9.62585772 59.6399903,9.62585772 C60.2973045,9.62585772 60.8425852,9.40059705 61.2755798,8.95057245 C61.7083224,8.50029947 61.9253244,7.91020091 61.9253244,7.18052527 C61.9253244,6.46575106 61.7083224,5.88707702 61.2755798,5.44450314 C60.8425852,5.0016809 60.2947813,4.7801456 59.6321682,4.7801456 L59.6321682,4.7801456 Z" id="Fill-11"></path>
                    <path d="M46.2979496,4.31733055 C45.7015585,4.31733055 45.2183568,4.79729226 45.2183568,5.38910728 L45.2183568,11.5128815 L47.3770221,11.5128815 L47.3770221,5.38910728 C47.3770221,4.79729226 46.8938204,4.31733055 46.2979496,4.31733055" id="Fill-12"></path>
                    <path d="M46.2925011,0 C46.7874396,0 47.2111899,0.176270832 47.5652001,0.528575253 C47.9192101,0.880879676 48.0965772,1.3076781 48.0965772,1.80897052 C48.0965772,2.3038574 47.9208994,2.7254365 47.570509,3.07441953 C47.2201187,3.42340256 46.800712,3.59777546 46.313013,3.59777546 C45.811559,3.59777546 45.3837063,3.41984393 45.0299375,3.06421812 C44.6756861,2.70859231 44.4988017,2.27681181 44.4988017,1.76816488 C44.4988017,1.28039526 44.6739969,0.863798251 45.024146,0.518373846 C45.3747776,0.172949444 45.797804,0 46.2925011,0" id="Fill-13"></path>
                </g>
</svg>
